<?xml version="1.0" standalone="no"?>
<!DOCTYPE svg PUBLIC "-//W3C//DTD SVG 20010904//EN"
 "http://www.w3.org/TR/2001/REC-SVG-20010904/DTD/svg10.dtd">
<svg version="1.0" xmlns="http://www.w3.org/2000/svg"
 width="1512.000000pt" height="1512.000000pt" viewBox="0 0 1512.000000 1512.000000"
 preserveAspectRatio="xMidYMid meet">
<metadata>
Created by potrace 1.15, written by Peter Selinger 2001-2017
</metadata>
<g transform="translate(0.000000,1512.000000) scale(0.100000,-0.100000)"
fill="#000000" stroke="none">
<path d="M7005 14915 c-293 -31 -685 -110 -993 -201 -637 -187 -1247 -495
-1771 -892 -219 -166 -360 -289 -577 -506 -450 -450 -768 -893 -1049 -1461
-298 -604 -450 -1124 -552 -1895 -15 -112 -18 -210 -18 -580 0 -480 0 -470 66
-850 143 -817 521 -1778 1117 -2840 765 -1363 1895 -2898 3301 -4485 257 -290
595 -656 828 -895 l170 -175 82 -3 c105 -5 123 0 178 51 170 156 913 970 1344
1472 2214 2581 3598 4897 3983 6665 91 422 90 402 94 1005 4 595 1 655 -53
971 -175 1026 -589 1919 -1254 2704 -225 266 -581 601 -869 818 -807 609
-1789 996 -2785 1097 -184 19 -1062 19 -1242 0z m-2060 -3527 c3 -13 151 -799
330 -1748 179 -949 329 -1736 332 -1749 17 -67 217 -67 239 1 4 12 224 808
489 1768 l482 1745 852 3 c468 1 851 0 851 -3 0 -3 219 -794 486 -1758 315
-1136 492 -1758 503 -1770 27 -28 88 -38 148 -26 28 5 57 16 63 24 6 7 159
796 340 1752 181 956 332 1748 335 1761 l5 22 815 0 c448 0 815 -2 815 -5 0
-8 -1360 -6177 -1366 -6198 -5 -16 -54 -17 -886 -15 l-881 3 -553 1985 c-304
1092 -557 1992 -562 2000 -27 43 -176 48 -216 6 -16 -16 -156 -508 -571 -2008
l-550 -1988 -882 0 c-486 0 -883 2 -883 5 0 5 -1365 6143 -1377 6193 l-5 22
821 0 821 0 5 -22z"/>
</g>
</svg>
